# File created by Blade
# Date/Time:  Tue Apr 07 20:29:34 2015
# Frame Rate: 120.000 fps
#------------------------------------------------------
:FULLY-SPECIFIED
:DEGREES
919
root 3.575346 33.635581 -4.453498 -20.282080 17.029855 -22.688664
Spine 10.291820 -7.498665 8.883322
Head 16.818019 -7.357893 8.991344
LeftShoulder -14.325868 39.665158 11.530117
LeftArm 59.860960 13.694181 -76.274058
LeftForeArm 3.222040 -0.000000 16.521420
LeftHand 7.610673 -0.000000 -5.269654
LeftHandThumb1 -26.253704 0.000000 33.147579
RightShoulder -5.143636 -3.713017 -14.687039
RightArm 12.651205 -4.393182 70.339184
RightForeArm 3.930591 -0.000000 21.974382
RightHand 7.739945 -0.000000 7.328222
RightHandThumb1 -24.326973 -0.000000 -32.862282
LeftUpLeg 3.486729 5.473807 19.240226
LeftLeg 20.596018 -0.000000 -0.000000
LeftFoot -9.677695 1.330050 -21.799491
LeftToeBase -10.607831 -0.000000 0.000000
RightUpLeg -96.308136 -2.836285 17.788567
RightLeg 91.457943 -0.000000 -0.000000
RightFoot 41.711558 -8.266804 4.485640
RightToeBase 34.841775 -0.000000 -0.000000
920
root 3.615380 33.635986 -4.492676 -19.891139 16.477423 -22.046251
Spine 10.316620 -7.158275 8.540035
Head 16.712644 -7.219329 8.691632
LeftShoulder -14.758686 39.875061 11.073650
LeftArm 59.498991 13.039641 -76.536429
LeftForeArm 3.136009 -0.000000 16.995165
LeftHand 7.741320 -0.000000 -5.053443
LeftHandThumb1 -26.253704 0.000000 33.147579
RightShoulder -5.090400 -3.648248 -14.905551
RightArm 12.671384 -4.736839 70.650024
RightForeArm 4.059009 -0.000000 22.087021
RightHand 7.631010 0.000000 7.433759
RightHandThumb1 -24.326973 -0.000000 -32.862282
LeftUpLeg 3.321640 5.139683 18.723977
LeftLeg 20.980857 -0.000000 -0.000000
LeftFoot -9.153523 1.134828 -21.956989
LeftToeBase -11.793185 -0.000000 0.000000
RightUpLeg -96.273850 -2.771937 17.766301
RightLeg 91.564529 -0.000000 -0.000000
RightFoot 41.591022 -8.587045 4.620606
RightToeBase 34.997724 -0.000000 -0.000000
921
root 3.655978 33.635890 -4.534252 -19.499401 15.975314 -21.375860
Spine 10.342244 -6.779184 8.134440
Head 16.583775 -7.185177 8.452162
LeftShoulder -15.109968 40.139369 10.681745
LeftArm 59.109665 12.299037 -76.907508
LeftForeArm 3.168785 0.000000 17.557730
LeftHand 7.806878 -0.000000 -4.793108
LeftHandThumb1 -26.253704 0.000000 33.147579
RightShoulder -5.080713 -3.759067 -15.072170
RightArm 12.843846 -5.022126 70.912154
RightForeArm 3.986365 -0.000000 22.140949
RightHand 7.548267 -0.000000 7.186596
RightHandThumb1 -24.326973 -0.000000 -32.862282
LeftUpLeg 3.156898 4.658635 18.147289
LeftLeg 21.340797 -0.000000 -0.000000
LeftFoot -8.690818 0.889195 -22.377660
LeftToeBase -12.486910 -0.000000 0.000000
RightUpLeg -96.269111 -2.772081 17.724694
RightLeg 91.691086 -0.000000 -0.000000
RightFoot 41.486282 -8.964249 4.711119
RightToeBase 34.593171 -0.000000 -0.000000
922
root 3.688837 33.638106 -4.573394 -19.187227 15.406018 -20.861775
Spine 10.401839 -6.368171 7.915366
Head 16.430319 -7.133660 8.159353
LeftShoulder -15.490263 40.319212 10.278756
LeftArm 58.689860 11.605840 -77.285476
LeftForeArm 3.169973 -0.000000 18.028086
LeftHand 7.867630 0.000000 -4.559826
LeftHandThumb1 -26.253704 0.000000 33.147579
RightShoulder -5.036080 -3.792455 -15.273688
RightArm 12.929108 -5.246859 71.194040
RightForeArm 4.150297 0.000000 22.112699
RightHand 7.605393 -0.000000 7.749552
RightHandThumb1 -24.326973 -0.000000 -32.862282
LeftUpLeg 3.073858 4.144093 17.757148
LeftLeg 21.631618 -0.000000 -0.000000
LeftFoot -8.331567 0.511322 -23.040276
LeftToeBase -12.847152 -0.000000 0.000000
RightUpLeg -96.206878 -2.747076 17.835869
RightLeg 91.788728 -0.000000 -0.000000
RightFoot 41.358186 -9.400666 4.822596
RightToeBase 34.582303 -0.000000 -0.000000
923
root 3.727469 33.636023 -4.612073 -18.870843 14.891348 -20.248532
Spine 10.470233 -5.923077 7.580454
Head 16.292150 -7.139553 7.867584
LeftShoulder -15.829759 40.452105 9.911075
LeftArm 58.219144 10.889038 -77.701459
LeftForeArm 3.089005 -0.000000 18.497666
LeftHand 7.893665 -0.000000 -4.256292
LeftHandThumb1 -26.253704 0.000000 33.147579
RightShoulder -5.025973 -3.764366 -15.487890
RightArm 12.919493 -5.551101 71.492128
RightForeArm 4.107161 -0.000000 22.098804
RightHand 7.571760 -0.000000 7.843144
RightHandThumb1 -24.326973 -0.000000 -32.862282
LeftUpLeg 3.039153 3.588363 17.241146
LeftLeg 21.856623 -0.000000 -0.000000
LeftFoot -8.032726 0.093234 -23.792111
LeftToeBase -12.261145 -0.000000 0.000000
RightUpLeg -96.182498 -2.787763 17.864541
RightLeg 91.936289 -0.000000 -0.000000
RightFoot 41.131949 -9.796760 5.026796
RightToeBase 34.835521 -0.000000 -0.000000
924
root 3.765653 33.632068 -4.651913 -18.546918 14.350624 -19.652488
Spine 10.515908 -5.438607 7.283505
Head 16.153043 -7.160802 7.547791
LeftShoulder -16.136102 40.650360 9.565037
LeftArm 57.784996 10.174934 -78.093979
LeftForeArm 3.077573 -0.000000 18.944797
LeftHand 7.897139 -0.000000 -4.032770
LeftHandThumb1 -26.253704 0.000000 33.147579
RightShoulder -4.985072 -3.779750 -15.714266
RightArm 12.912885 -5.751912 71.819626
RightForeArm 3.838775 -0.000000 22.063343
RightHand 7.468178 -0.000000 7.770493
RightHandThumb1 -24.326973 -0.000000 -32.862282
LeftUpLeg 3.031409 3.083054 16.740426
LeftLeg 21.975757 -0.000000 -0.000000
LeftFoot -7.751478 -0.293927 -24.429317
LeftToeBase -12.717306 -0.000000 0.000000
RightUpLeg -96.171397 -2.779667 17.870596
RightLeg 92.078341 -0.000000 -0.000000
RightFoot 41.057192 -10.001429 5.037757
RightToeBase 34.721507 -0.000000 -0.000000
925
root 3.804096 33.625748 -4.685773 -18.267082 13.770312 -19.120620
Spine 10.562495 -4.944835 7.066457
Head 16.065208 -7.149182 7.201068
LeftShoulder -16.408985 40.850323 9.271476
LeftArm 57.299786 9.470363 -78.541332
LeftForeArm 2.941836 -0.000000 19.333872
LeftHand 8.056625 -0.000000 -3.764340
LeftHandThumb1 -26.253704 0.000000 33.147579
RightShoulder -4.934957 -3.841747 -15.926400
RightArm 12.962781 -6.018876 72.057391
RightForeArm 3.792752 -0.000000 21.986600
RightHand 7.277484 -0.000000 7.711123
RightHandThumb1 -24.326973 -0.000000 -32.862282
LeftUpLeg 3.112780 2.694096 16.324818
LeftLeg 22.001610 -0.000000 -0.000000
LeftFoot -7.593343 -0.736709 -25.271384
LeftToeBase -12.105503 -0.000000 0.000000
RightUpLeg -96.145697 -2.760837 17.937750
RightLeg 92.270696 -0.000000 -0.000000
RightFoot 41.037315 -10.020902 4.853129
RightToeBase 34.639911 -0.000000 -0.000000
